<?xml version="1.0" standalone="no"?><!DOCTYPE svg PUBLIC "-//W3C//DTD SVG 1.1//EN" "http://www.w3.org/Graphics/SVG/1.1/DTD/svg11.dtd"><svg t="1554171776580" class="icon" style="" viewBox="0 0 1024 1024" version="1.1" xmlns="http://www.w3.org/2000/svg" p-id="1731" xmlns:xlink="http://www.w3.org/1999/xlink" width="200" height="200"><defs><style type="text/css"></style></defs><path d="M512 512m-128 0a128 128 0 1 0 256 0 128 128 0 1 0-256 0Z" fill="#1296db" p-id="1732"></path><path d="M554.666667 173.610667V85.333333h-85.333334v88.277334A341.674667 341.674667 0 0 0 173.610667 469.333333H85.333333v85.333334h88.277334A341.632 341.632 0 0 0 469.333333 850.389333V938.666667h85.333334v-88.277334A341.632 341.632 0 0 0 850.389333 554.666667H938.666667v-85.333334h-88.277334A341.674667 341.674667 0 0 0 554.666667 173.610667zM512 768c-141.184 0-256-114.816-256-256s114.816-256 256-256 256 114.816 256 256-114.816 256-256 256z" fill="#1296db" p-id="1733"></path></svg>