<?xml version="1.0" standalone="no"?><!DOCTYPE svg PUBLIC "-//W3C//DTD SVG 1.1//EN" "http://www.w3.org/Graphics/SVG/1.1/DTD/svg11.dtd"><svg t="1554171664021" class="icon" style="" viewBox="0 0 1024 1024" version="1.1" xmlns="http://www.w3.org/2000/svg" p-id="1207" xmlns:xlink="http://www.w3.org/1999/xlink" width="200" height="200"><defs><style type="text/css"></style></defs><path d="M469.333333 256H384v128H256v85.333333h128v128h85.333333v-128h128V384h-128z" fill="" p-id="1208"></path><path d="M426.666667 85.333333c-188.202667 0-341.333333 153.130667-341.333334 341.333334s153.130667 341.333333 341.333334 341.333333a339.285333 339.285333 0 0 0 208.938666-72.021333l187.562667 187.562666 60.330667-60.330666-187.562667-187.562667A339.285333 339.285333 0 0 0 768 426.666667c0-188.202667-153.130667-341.333333-341.333333-341.333334z m0 597.333334c-141.184 0-256-114.816-256-256s114.816-256 256-256 256 114.816 256 256-114.816 256-256 256z" fill="" p-id="1209"></path></svg>