<?xml version="1.0" standalone="no"?><!DOCTYPE svg PUBLIC "-//W3C//DTD SVG 1.1//EN" "http://www.w3.org/Graphics/SVG/1.1/DTD/svg11.dtd"><svg t="1554173080425" class="icon" style="" viewBox="0 0 1024 1024" version="1.1" xmlns="http://www.w3.org/2000/svg" p-id="1207" xmlns:xlink="http://www.w3.org/1999/xlink" width="200" height="200"><defs><style type="text/css"></style></defs><path d="M512 768c141.184 0 256-114.816 256-256s-114.816-256-256-256-256 114.816-256 256 114.816 256 256 256z m0-426.666667c94.122667 0 170.666667 76.544 170.666667 170.666667s-76.544 170.666667-170.666667 170.666667-170.666667-76.544-170.666667-170.666667 76.544-170.666667 170.666667-170.666667z" fill="" p-id="1208"></path><path d="M512 938.666667c231.296 0 426.666667-195.370667 426.666667-426.666667S743.296 85.333333 512 85.333333 85.333333 280.704 85.333333 512s195.370667 426.666667 426.666667 426.666667z m0-768c185.045333 0 341.333333 156.288 341.333333 341.333333s-156.288 341.333333-341.333333 341.333333-341.333333-156.288-341.333333-341.333333 156.288-341.333333 341.333333-341.333333z" fill="" p-id="1209"></path><path d="M512 597.333333c46.122667 0 85.333333-39.210667 85.333333-85.333333s-39.210667-85.333333-85.333333-85.333333-85.333333 39.210667-85.333333 85.333333 39.210667 85.333333 85.333333 85.333333z" fill="" p-id="1210"></path></svg>