<?xml version="1.0" standalone="no"?><!DOCTYPE svg PUBLIC "-//W3C//DTD SVG 1.1//EN" "http://www.w3.org/Graphics/SVG/1.1/DTD/svg11.dtd"><svg t="1553821453361" class="icon" style="" viewBox="0 0 1853 1024" version="1.1" xmlns="http://www.w3.org/2000/svg" p-id="2577" xmlns:xlink="http://www.w3.org/1999/xlink" width="361.9140625" height="200"><defs><style type="text/css"></style></defs><path d="M1828.08381 926.47619C1809.554286 426.179048 1414.095238 24.380952 926.47619 24.380952S43.885714 426.179048 25.35619 926.47619v72.655239h1804.190477V926.47619zM926.47619 97.52381c447.146667 0 813.348571 369.127619 831.390477 828.95238H97.52381C113.615238 466.16381 479.329524 97.52381 926.47619 97.52381z" fill="#1296db" p-id="2578"></path><path d="M1852.952381 1024H0v-97.52381C20.48 406.674286 426.666667 0 926.47619 0s906.971429 406.674286 926.476191 926.47619zM48.761905 975.238095h1755.428571v-48.761905C1785.173333 434.95619 1400.441905 48.761905 926.47619 48.761905S68.266667 434.95619 48.761905 926.47619z m1734.460952-23.893333H69.729524v-25.356191C90.209524 447.634286 466.16381 72.655238 926.47619 72.655238S1763.718095 447.634286 1782.735238 926.47619z m-1662.780952-48.761905h1609.142857c-29.744762-438.857143-379.367619-780.190476-805.546667-780.190476S151.161905 462.262857 120.929524 902.582857z" fill="#1296db" p-id="2579"></path><path d="M1486.262857 941.592381H1414.095238a481.767619 481.767619 0 1 0-963.535238 0H379.367619a553.447619 553.447619 0 1 1 1106.895238 0z" fill="#1296db" p-id="2580"></path><path d="M1511.619048 965.973333h-121.417143v-24.380952a457.386667 457.386667 0 1 0-914.773334 0v24.380952H354.986667v-24.380952a577.828571 577.828571 0 1 1 1155.657143 0z m-72.167619-48.761904H1462.857143a528.579048 528.579048 0 0 0-1057.158095 0h22.918095a506.148571 506.148571 0 0 1 1011.321905 0zM894.293333 65.828571h97.52381v157.500953h-97.52381zM463.969524 206.409143l84.455619-48.761905 78.750476 136.43581-84.455619 48.761904zM161.645714 543.402667l48.761905-84.455619 136.387048 78.750476-48.761905 84.455619zM1538.048 540.769524l136.387048-78.701714 48.761904 84.50438-136.387047 78.701715zM1450.666667 370.93181l78.019047-76.409905 68.266667 69.632-78.019048 76.458666zM1097.97181 192.463238l29.354666-105.179428 93.964191 26.185142-29.354667 105.228191zM676.230095 108.251429l94.45181-24.283429 27.209143 105.813333-94.45181 24.234667zM295.936 352.402286l69.632-68.266667 76.458667 78.019048-69.632 68.266666zM89.234286 754.151619l26.185143-93.915429 105.22819 29.354667-26.233905 93.915429zM1666.82819 701.68381l105.764572-27.209143 24.283428 94.451809-105.813333 27.209143zM1258.691048 295.887238l78.701714-136.435809 84.504381 48.761904-78.750476 136.43581z" fill="#1296db" p-id="2581"></path></svg>